<svg width="25" height="24" viewBox="0 0 25 24" fill="none" xmlns="http://www.w3.org/2000/svg">
<g id="vuesax/bold/card-edit">
<g id="card-edit">
<path id="Vector" d="M14.2998 4.6099V7.5399C14.2998 8.2099 13.7598 8.7499 13.0898 8.7499H4.0098C3.3298 8.7499 2.7998 8.1899 2.7998 7.5199C2.8098 6.3899 3.2598 5.3599 4.0098 4.6099C4.7598 3.8599 5.7998 3.3999 6.9398 3.3999H13.0898C13.7598 3.3999 14.2998 3.9399 14.2998 4.6099Z" fill="#D4D4D4"/>
<path id="Vector_2" d="M2.7998 11.46V16.46C2.7998 18.75 4.6498 20.6 6.9398 20.6H18.6498C20.9398 20.6 22.7998 18.74 22.7998 16.45V11.46C22.7998 10.79 22.2598 10.25 21.5898 10.25H4.0098C3.3398 10.25 2.7998 10.79 2.7998 11.46ZM8.7998 17.25H6.7998C6.3898 17.25 6.0498 16.91 6.0498 16.5C6.0498 16.09 6.3898 15.75 6.7998 15.75H8.7998C9.2098 15.75 9.5498 16.09 9.5498 16.5C9.5498 16.91 9.2098 17.25 8.7998 17.25ZM15.2998 17.25H11.2998C10.8898 17.25 10.5498 16.91 10.5498 16.5C10.5498 16.09 10.8898 15.75 11.2998 15.75H15.2998C15.7098 15.75 16.0498 16.09 16.0498 16.5C16.0498 16.91 15.7098 17.25 15.2998 17.25Z" fill="#D4D4D4"/>
<path id="Vector_3" d="M20.7698 1.75H17.8298C16.5598 1.75 15.7998 2.51 15.7998 3.78V6.72C15.7998 7.99 16.5598 8.75 17.8298 8.75H20.7698C22.0398 8.75 22.7998 7.99 22.7998 6.72V3.78C22.7998 2.51 22.0398 1.75 20.7698 1.75ZM18.8098 7.32C18.7798 7.35 18.7098 7.39 18.6598 7.39L17.6198 7.54C17.5898 7.55 17.5498 7.55 17.5198 7.55C17.3698 7.55 17.2398 7.5 17.1498 7.4C17.0298 7.28 16.9798 7.11 17.0098 6.93L17.1598 5.89C17.1698 5.84 17.1998 5.77 17.2298 5.74L18.9298 4.04C18.9598 4.11 18.9898 4.19 19.0198 4.27C19.0598 4.35 19.0998 4.42 19.1398 4.49C19.1698 4.55 19.2098 4.61 19.2498 4.65C19.2898 4.71 19.3298 4.77 19.3598 4.8C19.3798 4.83 19.3898 4.84 19.3998 4.85C19.4898 4.96 19.5898 5.06 19.6798 5.13C19.6998 5.15 19.7198 5.17 19.7298 5.17C19.7798 5.21 19.8398 5.26 19.8798 5.29C19.9398 5.33 19.9898 5.37 20.0498 5.4C20.1198 5.44 20.1998 5.48 20.2798 5.52C20.3598 5.56 20.4398 5.59 20.5098 5.61L18.8098 7.32ZM21.1998 4.93L20.8698 5.26C20.8598 5.28 20.8298 5.29 20.7998 5.29C20.7898 5.29 20.7798 5.29 20.7698 5.29C20.0498 5.08 19.4798 4.51 19.2698 3.79C19.2598 3.75 19.2698 3.71 19.2998 3.68L19.6298 3.35C20.1698 2.81 20.6798 2.82 21.2098 3.35C21.4798 3.62 21.6098 3.88 21.6098 4.14C21.5998 4.4 21.4698 4.66 21.1998 4.93Z" fill="#D4D4D4"/>
</g>
</g>
</svg>
