<svg width="21" height="20" viewBox="0 0 21 20" fill="none" xmlns="http://www.w3.org/2000/svg">
<g id="vuesax/bold/cpu-setting">
<g id="cpu-setting">
<path id="Vector" d="M6.08 17.91C6.38 17.96 6.68 18 7 18C6.69 18 6.38 17.96 6.08 17.91ZM13 18C13.32 18 13.62 17.96 13.92 17.91C13.62 17.96 13.31 18 13 18ZM17.91 13.91C17.96 13.62 18 13.31 18 13C18 13.31 17.96 13.61 17.91 13.91ZM2.09 13.91C2.04 13.61 2 13.31 2 13C2 13.31 2.04 13.62 2.09 13.91ZM2.09 6.08C2.04 6.38 2 6.68 2 7C2 6.69 2.04 6.38 2.09 6.08ZM6.08 2.09C6.38 2.04 6.69 2 7 2C6.68 2 6.38 2.04 6.08 2.09Z" fill="#D4D4D4"/>
<path id="Vector_2" d="M6.3 0C6.72 0 7.05 0.33 7.05 0.75V2H8.88707C9.22065 2 9.42836 2.36202 9.26 2.65C9.01 3.08 8.93 3.58 9.06 4.06C9.1339 4.3679 8.93492 4.74 8.61829 4.74H7.74C6.09 4.74 4.74 6.09 4.74 7.74V12.26C4.74 13.91 6.09 15.26 7.74 15.26H12.26C13.91 15.26 15.26 13.91 15.26 12.26V11.81C15.26 11.694 15.354 11.6 15.47 11.6C16.4335 11.6 17.2436 10.9018 17.4298 9.98249C17.4648 9.80964 17.6716 9.69265 17.8383 9.75001C17.9337 9.78281 18 9.8698 18 9.97067V12.94H19.25C19.66 12.94 20 13.28 20 13.69C20 14.11 19.66 14.44 19.25 14.44H17.78C17.29 16.04 16.04 17.29 14.45 17.77V19.25C14.45 19.66 14.11 20 13.7 20C13.28 20 12.95 19.66 12.95 19.25V18H10.75V19.25C10.75 19.66 10.41 20 10 20C9.58 20 9.25 19.66 9.25 19.25V18H7.05V19.25C7.05 19.66 6.72 20 6.3 20C5.89 20 5.55 19.66 5.55 19.25V17.77C3.96 17.29 2.71 16.04 2.22 14.44H0.75C0.34 14.44 0 14.11 0 13.69C0 13.28 0.34 12.94 0.75 12.94H2V10.75H0.75C0.34 10.75 0 10.41 0 10C0 9.59 0.34 9.25 0.75 9.25H2L2 7.05H0.75C0.34 7.05 0 6.71 0 6.3C0 5.89 0.34 5.55 0.75 5.55H2.23C2.71 3.96 3.96 2.71 5.55 2.23V0.75C5.55 0.33 5.89 0 6.3 0Z" fill="#D4D4D4"/>
<path id="Vector_3" d="M13.53 1.0101C13.53 1.6901 13.19 2.0801 12.69 2.0801C12.49 2.0801 12.26 2.0201 12.02 1.8801C11.54 1.6001 10.92 1.7701 10.65 2.2501L10.12 3.1601C9.87003 3.5801 10.02 4.1201 10.44 4.3701L10.54 4.4301C11.37 4.9101 11.37 5.6901 10.54 6.1701L10.44 6.2301C10.02 6.4701 9.87003 7.0201 10.12 7.4301L10.65 8.3501C10.83 8.6701 11.17 8.8601 11.52 8.8601C11.69 8.8601 11.86 8.8101 12.02 8.7201C12.26 8.5801 12.49 8.5101 12.69 8.5101C13.19 8.5101 13.53 8.9101 13.53 9.5901C13.53 10.1401 13.98 10.6001 14.53 10.6001H15.47C16.02 10.6001 16.47 10.1401 16.47 9.5901C16.47 8.9101 16.81 8.5101 17.31 8.5101C17.51 8.5101 17.74 8.5801 17.98 8.7201C18.46 9.0001 19.08 8.8301 19.35 8.3501L19.88 7.4301C20.13 7.0201 19.98 6.4701 19.56 6.2301L19.46 6.1701C18.63 5.6901 18.63 4.9101 19.46 4.4301L19.56 4.3701C19.98 4.1201 20.13 3.5801 19.88 3.1601L19.35 2.2501C19.17 1.9301 18.83 1.7401 18.48 1.7401C18.31 1.7401 18.14 1.7901 17.98 1.8801C17.74 2.0201 17.51 2.0801 17.31 2.0801C16.81 2.0801 16.47 1.6901 16.47 1.0101C16.47 0.450097 16.02 9.72748e-05 15.47 9.72748e-05H14.53C13.98 9.72748e-05 13.53 0.450097 13.53 1.0101ZM16.72 5.3001C16.72 6.2501 15.95 7.0201 15 7.0201C14.05 7.0201 13.28 6.2501 13.28 5.3001C13.28 4.3501 14.05 3.5801 15 3.5801C15.95 3.5801 16.72 4.3501 16.72 5.3001Z" fill="#D4D4D4"/>
<path id="Vector_4" d="M8.02 5.75H8.59254C8.92661 5.75 9.13839 6.19525 9.06 6.52C8.93 7.02 9 7.52 9.25 7.93L9.78 8.84C10.13 9.47 10.8 9.86 11.52 9.86C11.5796 9.86 11.6396 9.85754 11.6996 9.85246C12.0858 9.81975 12.5545 10.0897 12.7191 10.4407C12.9454 10.9233 13.3577 11.3021 13.8624 11.4835C14.0785 11.5611 14.25 11.7504 14.25 11.98C14.25 13.24 13.24 14.25 11.98 14.25H8.02C6.76 14.25 5.75 13.24 5.75 11.98V8.02C5.75 6.76 6.76 5.75 8.02 5.75Z" fill="#D4D4D4"/>
</g>
</g>
</svg>
