<svg width="20" height="20" viewBox="0 0 20 20" fill="none" xmlns="http://www.w3.org/2000/svg">
<g id="vuesax/bold/document">
<g id="document">
<path id="Vector" d="M18.8999 8.19H16.0099C13.6399 8.19 11.7099 6.26 11.7099 3.89V1C11.7099 0.45 11.2599 0 10.7099 0H6.4699C3.3899 0 0.899902 2 0.899902 5.57V14.43C0.899902 18 3.3899 20 6.4699 20H14.3299C17.4099 20 19.8999 18 19.8999 14.43V9.19C19.8999 8.64 19.4499 8.19 18.8999 8.19Z" fill="#D4D4D4"/>
<path id="Vector_2" d="M14.2001 0.209993C13.7901 -0.200007 13.0801 0.0799931 13.0801 0.649993V4.13999C13.0801 5.59999 14.3201 6.80999 15.8301 6.80999C16.7801 6.81999 18.1001 6.81999 19.2301 6.81999C19.8001 6.81999 20.1001 6.14999 19.7001 5.74999C18.2601 4.29999 15.6801 1.68999 14.2001 0.209993Z" fill="#D4D4D4"/>
</g>
</g>
</svg>
