<svg width="24" height="24" viewBox="0 0 24 24" fill="none" xmlns="http://www.w3.org/2000/svg">
<g id="fill/logos/instagram-fill">
<path id="Vector" d="M12 4.36084C14.0755 4.36084 14.3344 4.36848 15.1487 4.40667C15.9623 4.44487 16.5161 4.57244 17.0034 4.76188C17.5076 4.95591 17.9323 5.21869 18.3571 5.64265C18.7455 6.02451 19.0461 6.48643 19.2378 6.99626C19.4265 7.48285 19.5548 8.03744 19.593 8.85098C19.6289 9.66528 19.6389 9.92424 19.6389 11.9997C19.6389 14.0752 19.6312 14.3342 19.593 15.1485C19.5548 15.962 19.4265 16.5158 19.2378 17.0032C19.0466 17.5133 18.746 17.9753 18.3571 18.3568C17.9751 18.7451 17.5132 19.0457 17.0034 19.2376C16.5168 19.4263 15.9623 19.5546 15.1487 19.5928C14.3344 19.6287 14.0755 19.6386 12 19.6386C9.92449 19.6386 9.66553 19.631 8.85122 19.5928C8.03768 19.5546 7.48386 19.4263 6.9965 19.2376C6.48647 19.0462 6.02447 18.7456 5.64289 18.3568C5.25438 17.975 4.95381 17.5131 4.76213 17.0032C4.57268 16.5166 4.44511 15.962 4.40692 15.1485C4.37101 14.3342 4.36108 14.0752 4.36108 11.9997C4.36108 9.92424 4.36872 9.66528 4.40692 8.85098C4.44511 8.03667 4.57268 7.48362 4.76213 6.99626C4.95328 6.48612 5.25392 6.02407 5.64289 5.64265C6.02458 5.254 6.48655 4.95341 6.9965 4.76188C7.48386 4.57244 8.03692 4.44487 8.85122 4.40667C9.66553 4.37077 9.92449 4.36084 12 4.36084ZM12 8.18028C10.987 8.18028 10.0155 8.58269 9.29922 9.29897C8.58293 10.0153 8.18053 10.9867 8.18053 11.9997C8.18053 13.0127 8.58293 13.9842 9.29922 14.7005C10.0155 15.4168 10.987 15.8192 12 15.8192C13.013 15.8192 13.9844 15.4168 14.7007 14.7005C15.417 13.9842 15.8194 13.0127 15.8194 11.9997C15.8194 10.9867 15.417 10.0153 14.7007 9.29897C13.9844 8.58269 13.013 8.18028 12 8.18028ZM16.9653 7.98931C16.9653 7.73607 16.8647 7.49319 16.6856 7.31412C16.5065 7.13505 16.2636 7.03445 16.0104 7.03445C15.7571 7.03445 15.5143 7.13505 15.3352 7.31412C15.1561 7.49319 15.0555 7.73607 15.0555 7.98931C15.0555 8.24256 15.1561 8.48543 15.3352 8.6645C15.5143 8.84357 15.7571 8.94417 16.0104 8.94417C16.2636 8.94417 16.5065 8.84357 16.6856 8.6645C16.8647 8.48543 16.9653 8.24256 16.9653 7.98931ZM12 9.70806C12.6078 9.70806 13.1907 9.9495 13.6204 10.3793C14.0502 10.809 14.2916 11.3919 14.2916 11.9997C14.2916 12.6075 14.0502 13.1904 13.6204 13.6202C13.1907 14.05 12.6078 14.2914 12 14.2914C11.3922 14.2914 10.8093 14.05 10.3795 13.6202C9.94975 13.1904 9.70831 12.6075 9.70831 11.9997C9.70831 11.3919 9.94975 10.809 10.3795 10.3793C10.8093 9.9495 11.3922 9.70806 12 9.70806Z" fill="#009CFF"/>
</g>
</svg>
