<svg width="40" height="40" viewBox="0 0 40 40" fill="none" xmlns="http://www.w3.org/2000/svg">
<g id="vuesax/bold/send-2">
<g id="vuesax/bold/send-2_2">
<g id="send-2">
<path id="Vector" d="M27.3072 4.0335L11.3689 9.33037C0.655036 12.9146 0.655036 18.7588 11.3689 22.3254L16.0992 23.8968L17.6701 28.6286C21.2355 39.346 27.0954 39.346 30.6608 28.6286L35.9736 12.7027C38.3388 5.55194 34.4557 1.64991 27.3072 4.0335ZM27.8721 13.5326L21.1649 20.2772C20.9001 20.5421 20.5648 20.6657 20.2294 20.6657C19.8941 20.6657 19.5587 20.5421 19.2939 20.2772C18.7821 19.7652 18.7821 18.9177 19.2939 18.4057L26.0011 11.661C26.513 11.149 27.3602 11.149 27.8721 11.661C28.3839 12.173 28.3839 13.0205 27.8721 13.5326Z" fill="white"/>
</g>
</g>
</g>
</svg>
