<svg width="21" height="20" viewBox="0 0 21 20" fill="none" xmlns="http://www.w3.org/2000/svg">
<g id="vuesax/bold/setting-3">
<g id="setting-3">
<path id="Vector" d="M0.600098 5.81L0.600098 14.19C0.600098 17.83 2.7701 20 6.4101 20H14.7801C18.4301 20 20.6001 17.83 20.6001 14.19V5.82C20.6001 2.18 18.4301 0.0100002 14.7901 0.0100002H6.4101C2.7701 0 0.600098 2.17 0.600098 5.81ZM4.1001 14.33C3.6901 14.33 3.3501 13.99 3.3501 13.58C3.3501 13.17 3.6901 12.83 4.1001 12.83H8.0001C8.4101 12.83 8.7501 13.17 8.7501 13.58C8.7501 13.99 8.4101 14.33 8.0001 14.33H4.1001ZM15.0314 12.4772C15.1217 12.6806 15.3133 12.83 15.5359 12.83H17.1001C17.5101 12.83 17.8501 13.17 17.8501 13.58C17.8501 13.99 17.5101 14.33 17.1001 14.33H15.5359C15.3133 14.33 15.1217 14.4794 15.0312 14.6828C14.6065 15.6372 13.6581 16.3 12.5501 16.3C11.0501 16.3 9.8201 15.08 9.8201 13.58C9.8201 12.08 11.0401 10.85 12.5501 10.85C13.6583 10.85 14.6067 11.5209 15.0314 12.4772ZM17.1001 5.67C17.5101 5.67 17.8501 6.01 17.8501 6.42C17.8501 6.83 17.5101 7.17 17.1001 7.17L13.2001 7.17C12.7901 7.17 12.4501 6.83 12.4501 6.42C12.4501 6.01 12.7901 5.67 13.2001 5.67L17.1001 5.67ZM11.3701 6.42C11.3701 7.92 10.1501 9.15 8.6401 9.15C7.53194 9.15 6.58352 8.47913 6.15883 7.52282C6.06848 7.31938 5.8769 7.17 5.65431 7.17H4.1001C3.6901 7.17 3.3501 6.83 3.3501 6.42C3.3501 6.01 3.6901 5.67 4.1001 5.67H5.66431C5.8869 5.67 6.07845 5.5206 6.16895 5.31723C6.5937 4.36275 7.54205 3.7 8.6501 3.7C10.1501 3.7 11.3701 4.92 11.3701 6.42Z" fill="#D4D4D4"/>
</g>
</g>
</svg>
