<svg width="25" height="24" viewBox="0 0 25 24" fill="none" xmlns="http://www.w3.org/2000/svg">
<g id="vuesax/bold/shopping-cart">
<g id="shopping-cart">
<path id="Vector" d="M16.4502 22.5C17.4167 22.5 18.2002 21.7165 18.2002 20.75C18.2002 19.7835 17.4167 19 16.4502 19C15.4837 19 14.7002 19.7835 14.7002 20.75C14.7002 21.7165 15.4837 22.5 16.4502 22.5Z" fill="#D4D4D4"/>
<path id="Vector_2" d="M8.4502 22.5C9.41669 22.5 10.2002 21.7165 10.2002 20.75C10.2002 19.7835 9.41669 19 8.4502 19C7.4837 19 6.7002 19.7835 6.7002 20.75C6.7002 21.7165 7.4837 22.5 8.4502 22.5Z" fill="#D4D4D4"/>
<path id="Vector_3" d="M5.0402 3.94L4.8402 6.39C4.8002 6.86 5.1702 7.25 5.6402 7.25H20.9502C21.3702 7.25 21.7202 6.93 21.7502 6.51C21.8802 4.74 20.5302 3.3 18.7602 3.3H6.4702C6.3702 2.86 6.1702 2.44 5.8602 2.09C5.3602 1.56 4.6602 1.25 3.9402 1.25H2.2002C1.7902 1.25 1.4502 1.59 1.4502 2C1.4502 2.41 1.7902 2.75 2.2002 2.75H3.9402C4.2502 2.75 4.5402 2.88 4.7502 3.1C4.9602 3.33 5.0602 3.63 5.0402 3.94Z" fill="#D4D4D4"/>
<path id="Vector_4" d="M20.7102 8.75H5.37025C4.95025 8.75 4.61025 9.07 4.57025 9.48L4.21025 13.83C4.07025 15.54 5.41025 17 7.12025 17H18.2402C19.7402 17 21.0602 15.77 21.1702 14.27L21.5002 9.6C21.5402 9.14 21.1802 8.75 20.7102 8.75Z" fill="#D4D4D4"/>
</g>
</g>
</svg>
