<svg width="80" height="81" viewBox="0 0 80 81" fill="none" xmlns="http://www.w3.org/2000/svg">
<g id="vuesax/bold/tick-circle">
<g id="vuesax/bold/tick-circle_2">
<g id="tick-circle">
<path id="Vector" d="M40.0003 7.16669C21.6337 7.16669 6.66699 22.1334 6.66699 40.5C6.66699 58.8667 21.6337 73.8334 40.0003 73.8334C58.367 73.8334 73.3337 58.8667 73.3337 40.5C73.3337 22.1334 58.367 7.16669 40.0003 7.16669ZM55.9337 32.8334L37.0337 51.7334C36.567 52.2 35.9337 52.4667 35.267 52.4667C34.6003 52.4667 33.967 52.2 33.5003 51.7334L24.067 42.3C23.1003 41.3334 23.1003 39.7334 24.067 38.7667C25.0337 37.8 26.6337 37.8 27.6003 38.7667L35.267 46.4334L52.4003 29.3C53.367 28.3334 54.967 28.3334 55.9337 29.3C56.9003 30.2667 56.9003 31.8334 55.9337 32.8334Z" fill="#FF6900"/>
</g>
</g>
</g>
</svg>
