<svg width="24" height="24" viewBox="0 0 24 24" fill="none" xmlns="http://www.w3.org/2000/svg">
<g id="fill/logos/twitter-fill">
<path id="Vector" d="M19.7626 7.15379C19.1794 7.41175 18.561 7.58117 17.9277 7.65643C18.5952 7.25725 19.0947 6.62901 19.3333 5.88879C18.7069 6.26157 18.0202 6.52282 17.3044 6.66414C16.8236 6.14972 16.1864 5.80856 15.4917 5.69368C14.797 5.57881 14.0838 5.69667 13.463 6.02893C12.8422 6.36119 12.3486 6.88924 12.0589 7.53099C11.7692 8.17274 11.6996 8.89223 11.8609 9.57761C10.5907 9.51394 9.348 9.18384 8.21359 8.60874C7.07918 8.03364 6.0784 7.2264 5.27622 6.23942C4.99227 6.72712 4.84306 7.28153 4.84386 7.84587C4.84386 8.95351 5.40761 9.93205 6.26469 10.505C5.75748 10.489 5.26142 10.352 4.81789 10.1055V10.1452C4.81804 10.8829 5.07331 11.5978 5.54041 12.1688C6.00751 12.7397 6.6577 13.1316 7.38073 13.2779C6.90988 13.4055 6.41618 13.4243 5.93698 13.3329C6.14084 13.9679 6.53817 14.5232 7.07334 14.9211C7.60851 15.319 8.25472 15.5396 8.9215 15.552C8.25881 16.0724 7.50003 16.4572 6.68856 16.6842C5.87708 16.9112 5.02882 16.9761 4.19226 16.875C5.65259 17.8142 7.35254 18.3128 9.08879 18.3111C14.9654 18.3111 18.1791 13.4429 18.1791 9.22087C18.1791 9.08337 18.1752 8.94435 18.1691 8.80837C18.7947 8.35628 19.3345 7.79624 19.7634 7.15456L19.7626 7.15379Z" fill="#009CFF"/>
</g>
</svg>
