<svg width="21" height="20" viewBox="0 0 21 20" fill="none" xmlns="http://www.w3.org/2000/svg">
<g id="vuesax/bold/profile-2user">
<g id="profile-2user">
<path id="Vector" d="M8 0C5.38 0 3.25 2.13 3.25 4.75C3.25 7.32 5.26 9.4 7.88 9.49C7.96 9.48 8.04 9.48 8.1 9.49C8.12 9.49 8.13 9.49 8.15 9.49C8.16 9.49 8.16 9.49 8.17 9.49C10.73 9.4 12.74 7.32 12.75 4.75C12.75 2.13 10.62 0 8 0Z" fill="white"/>
<path id="Vector_2" d="M13.08 12.1499C10.29 10.2899 5.73996 10.2899 2.92996 12.1499C1.65996 12.9999 0.959961 14.1499 0.959961 15.3799C0.959961 16.6099 1.65996 17.7499 2.91996 18.5899C4.31996 19.5299 6.15996 19.9999 7.99996 19.9999C9.83996 19.9999 11.68 19.5299 13.08 18.5899C14.34 17.7399 15.04 16.5999 15.04 15.3599C15.03 14.1299 14.34 12.9899 13.08 12.1499Z" fill="white"/>
<path id="Vector_3" d="M18.9899 5.3401C19.1499 7.2801 17.7699 8.9801 15.8599 9.2101C15.8499 9.2101 15.8499 9.2101 15.8399 9.2101H15.8099C15.7499 9.2101 15.6899 9.2101 15.6399 9.2301C14.6699 9.2801 13.7799 8.9701 13.1099 8.4001C14.1399 7.4801 14.7299 6.1001 14.6099 4.6001C14.5399 3.7901 14.2599 3.0501 13.8399 2.4201C14.2199 2.2301 14.6599 2.1101 15.1099 2.0701C17.0699 1.9001 18.8199 3.3601 18.9899 5.3401Z" fill="white"/>
<path id="Vector_4" d="M20.9897 14.5899C20.9097 15.5599 20.2897 16.3999 19.2497 16.9699C18.2497 17.5199 16.9897 17.7799 15.7397 17.7499C16.4597 17.0999 16.8797 16.2899 16.9597 15.4299C17.0597 14.1899 16.4697 12.9999 15.2897 12.0499C14.6197 11.5199 13.8397 11.0999 12.9897 10.7899C15.1997 10.1499 17.9797 10.5799 19.6897 11.9599C20.6097 12.6999 21.0797 13.6299 20.9897 14.5899Z" fill="white"/>
</g>
</g>
</svg>
